<?xml version="1.0" encoding="utf-8" standalone="no"?>
<!DOCTYPE svg PUBLIC "-//W3C//DTD SVG 1.1//EN"
  "http://www.w3.org/Graphics/SVG/1.1/DTD/svg11.dtd">
<svg xmlns:xlink="http://www.w3.org/1999/xlink" width="633.6pt" height="345.6pt" viewBox="0 0 633.6 345.6" xmlns="http://www.w3.org/2000/svg" version="1.1">
<title>Arrhenius-Weibull use-temperature lifetime sweep</title>
<desc>Grouped bars show B10, the 10 percent failure time, and eta, the 63.2 percent failure time, by use junction temperature. Bar labels with a plus sign identify declared use-temperature extrapolations; values are Arrhenius-Weibull model estimates, not direct observations.</desc>
 <metadata>
  <rdf:RDF xmlns:dc="http://purl.org/dc/elements/1.1/" xmlns:cc="http://creativecommons.org/ns#" xmlns:rdf="http://www.w3.org/1999/02/22-rdf-syntax-ns#">
   <cc:Work>
    <dc:type rdf:resource="http://purl.org/dc/dcmitype/StillImage"/>
    <dc:format>image/svg+xml</dc:format>
    <dc:creator>
     <cc:Agent>
      <dc:title>Matplotlib v3.11.1, https://matplotlib.org/</dc:title>
     </cc:Agent>
    </dc:creator>
   </cc:Work>
  </rdf:RDF>
 </metadata>
 <defs>
  <style type="text/css">*{stroke-linejoin: round; stroke-linecap: butt}</style>
 </defs>
 <g id="figure_1">
  <g id="patch_1">
   <path d="M 0 345.6
L 633.6 345.6
L 633.6 0
L 0 0
z
" style="fill: #ffffff"/>
  </g>
  <g id="axes_1">
   <g id="patch_2">
    <path d="M 47.32 303.8
L 622.8 303.8
L 622.8 27.12
L 47.32 27.12
z
" style="fill: #ffffff"/>
   </g>
   <g id="patch_3">
    <path d="M 87.008276 81869.805815
L 132.843921 81869.805815
L 132.843921 161.826396
L 87.008276 161.826396
z
" clip-path="url(#pba9628708d)" style="fill: #9aa9b8"/>
   </g>
   <g id="patch_4">
    <path d="M 221.818996 81869.805815
L 267.65464 81869.805815
L 267.65464 206.919563
L 221.818996 206.919563
z
" clip-path="url(#pba9628708d)" style="fill: #9aa9b8"/>
   </g>
   <g id="patch_5">
    <path d="M 356.629715 81869.805815
L 402.46536 81869.805815
L 402.46536 233.006782
L 356.629715 233.006782
z
" clip-path="url(#pba9628708d)" style="fill: #9aa9b8"/>
   </g>
   <g id="patch_6">
    <path d="M 491.440435 81869.805815
L 537.276079 81869.805815
L 537.276079 256.473158
L 491.440435 256.473158
z
" clip-path="url(#pba9628708d)" style="fill: #9aa9b8"/>
   </g>
   <g id="patch_7">
    <path d="M 132.843921 81869.805815
L 178.679565 81869.805815
L 178.679565 74.446842
L 132.843921 74.446842
z
" clip-path="url(#pba9628708d)" style="fill: #2878b5"/>
   </g>
   <g id="patch_8">
    <path d="M 267.65464 81869.805815
L 313.490285 81869.805815
L 313.490285 119.540009
L 267.65464 119.540009
z
" clip-path="url(#pba9628708d)" style="fill: #2878b5"/>
   </g>
   <g id="patch_9">
    <path d="M 402.46536 81869.805815
L 448.301004 81869.805815
L 448.301004 145.627228
L 402.46536 145.627228
z
" clip-path="url(#pba9628708d)" style="fill: #2878b5"/>
   </g>
   <g id="patch_10">
    <path d="M 537.276079 81869.805815
L 583.111724 81869.805815
L 583.111724 169.093604
L 537.276079 169.093604
z
" clip-path="url(#pba9628708d)" style="fill: #2878b5"/>
   </g>
   <g id="matplotlib.axis_1">
    <g id="xtick_1">
     <g id="line2d_1">
      <defs>
       <path id="m9976fcdc0d" d="M 0 0
L 0 3.5
" style="stroke: #000000; stroke-width: 0.8"/>
      </defs>
      <g>
       <use xlink:href="#m9976fcdc0d" x="132.843921" y="303.8" style="stroke: #000000; stroke-width: 0.8"/>
      </g>
     </g>
     <g id="text_1">
      <!-- 55 -->
      <g transform="translate(127.303296 319.4) scale(0.1 -0.1)">
       <defs>
        <path id="STHeiti-18" d="M 3149 4979
L 3149 4544
L 1510 4544
L 1280 3290
Q 1587 3379 1856 3379
Q 2458 3379 2861 2953
Q 3264 2528 3264 1862
Q 3264 1197 2825 733
Q 2387 269 1664 269
Q 1114 269 726 598
Q 339 928 262 1498
L 730 1498
Q 813 1114 1075 909
Q 1338 704 1683 704
Q 2138 704 2467 1043
Q 2797 1382 2797 1888
Q 2797 2349 2509 2646
Q 2221 2944 1757 2944
Q 1293 2944 730 2701
L 1158 4979
L 3149 4979
z
" transform="scale(0.015625)"/>
       </defs>
       <use xlink:href="#STHeiti-18"/>
       <use xlink:href="#STHeiti-18" transform="translate(55.40625 0)"/>
      </g>
     </g>
    </g>
    <g id="xtick_2">
     <g id="line2d_2">
      <g>
       <use xlink:href="#m9976fcdc0d" x="267.65464" y="303.8" style="stroke: #000000; stroke-width: 0.8"/>
      </g>
     </g>
     <g id="text_2">
      <!-- 85 -->
      <g transform="translate(262.114015 319.4) scale(0.1 -0.1)">
       <defs>
        <path id="STHeiti-1b" d="M 2458 2906
Q 3328 2477 3328 1702
Q 3328 1088 2896 678
Q 2464 269 1763 269
Q 1062 269 640 678
Q 218 1088 218 1664
Q 218 2470 1107 2906
Q 435 3264 435 3898
Q 435 4371 828 4732
Q 1222 5094 1779 5094
Q 2336 5094 2726 4742
Q 3117 4390 3117 3885
Q 3117 3270 2458 2906
z
M 2656 3904
Q 2656 4211 2416 4432
Q 2176 4653 1789 4653
Q 1402 4653 1152 4432
Q 902 4211 902 3897
Q 902 3584 1174 3337
Q 1446 3091 1792 3091
Q 2138 3091 2397 3334
Q 2656 3578 2656 3904
z
M 2867 1696
Q 2867 2086 2550 2380
Q 2234 2675 1782 2675
Q 1331 2675 1004 2371
Q 678 2067 678 1654
Q 678 1242 979 973
Q 1280 704 1766 704
Q 2253 704 2560 992
Q 2867 1280 2867 1696
z
" transform="scale(0.015625)"/>
       </defs>
       <use xlink:href="#STHeiti-1b"/>
       <use xlink:href="#STHeiti-18" transform="translate(55.40625 0)"/>
      </g>
     </g>
    </g>
    <g id="xtick_3">
     <g id="line2d_3">
      <g>
       <use xlink:href="#m9976fcdc0d" x="402.46536" y="303.8" style="stroke: #000000; stroke-width: 0.8"/>
      </g>
     </g>
     <g id="text_3">
      <!-- 105 -->
      <g transform="translate(394.154422 319.4) scale(0.1 -0.1)">
       <defs>
        <path id="STHeiti-14" d="M 1184 4979
L 2086 4979
L 2086 384
L 1632 384
L 1632 4531
L 909 4531
L 1184 4979
z
" transform="scale(0.015625)"/>
        <path id="STHeiti-13" d="M 1747 269
Q 1005 269 605 880
Q 205 1491 205 2681
Q 205 3872 605 4483
Q 1005 5094 1741 5094
Q 2477 5094 2909 4470
Q 3341 3846 3341 2681
Q 3341 1517 2905 893
Q 2470 269 1747 269
z
M 1760 4659
Q 1229 4659 934 4147
Q 640 3635 640 2669
Q 640 685 1760 685
Q 2304 685 2608 1206
Q 2912 1728 2912 2681
Q 2912 3635 2598 4147
Q 2285 4659 1760 4659
z
" transform="scale(0.015625)"/>
       </defs>
       <use xlink:href="#STHeiti-14"/>
       <use xlink:href="#STHeiti-13" transform="translate(55.40625 0)"/>
       <use xlink:href="#STHeiti-18" transform="translate(110.8125 0)"/>
      </g>
     </g>
    </g>
    <g id="xtick_4">
     <g id="line2d_4">
      <g>
       <use xlink:href="#m9976fcdc0d" x="537.276079" y="303.8" style="stroke: #000000; stroke-width: 0.8"/>
      </g>
     </g>
     <g id="text_4">
      <!-- 125 -->
      <g transform="translate(528.965142 319.4) scale(0.1 -0.1)">
       <defs>
        <path id="STHeiti-15" d="M 742 3539
L 301 3539
Q 333 4243 768 4668
Q 1203 5094 1820 5094
Q 2438 5094 2844 4694
Q 3251 4294 3251 3718
Q 3251 3290 3024 2925
Q 2797 2560 2336 2061
L 1190 826
L 3315 826
L 3315 384
L 192 384
L 1946 2278
Q 2406 2778 2604 3066
Q 2803 3354 2803 3725
Q 2803 4096 2512 4377
Q 2221 4659 1789 4659
Q 1357 4659 1072 4368
Q 787 4077 742 3539
z
" transform="scale(0.015625)"/>
       </defs>
       <use xlink:href="#STHeiti-14"/>
       <use xlink:href="#STHeiti-15" transform="translate(55.40625 0)"/>
       <use xlink:href="#STHeiti-18" transform="translate(110.8125 0)"/>
      </g>
     </g>
    </g>
    <g id="text_5">
     <!-- Use junction temperature (°C) -->
     <g transform="translate(260.024844 333.4) scale(0.1 -0.1)">
      <defs>
       <path id="STHeiti-38" d="M 576 4979
L 1037 4979
L 1037 2208
Q 1037 1779 1059 1561
Q 1082 1344 1213 1142
Q 1344 941 1581 822
Q 1818 704 2090 704
Q 2362 704 2566 803
Q 2771 902 2912 1081
Q 3053 1261 3107 1475
Q 3162 1690 3162 2208
L 3162 4979
L 3616 4979
L 3616 2208
Q 3616 1510 3475 1139
Q 3334 768 2979 518
Q 2624 269 2144 269
Q 1760 269 1453 393
Q 1146 518 941 742
Q 736 966 656 1241
Q 576 1517 576 2208
L 576 4979
z
" transform="scale(0.015625)"/>
       <path id="STHeiti-56" d="M 2195 3411
L 1914 3123
Q 1562 3462 1229 3462
Q 1011 3462 864 3324
Q 717 3187 717 2985
Q 717 2784 873 2640
Q 1030 2496 1414 2294
Q 1798 2093 2000 1859
Q 2202 1626 2202 1286
Q 2202 858 1904 563
Q 1606 269 1171 269
Q 883 269 617 397
Q 352 525 166 755
L 442 1062
Q 781 685 1152 685
Q 1414 685 1600 857
Q 1786 1030 1786 1264
Q 1786 1498 1622 1648
Q 1459 1798 1078 1990
Q 698 2182 509 2409
Q 320 2637 320 2998
Q 320 3360 585 3616
Q 851 3872 1289 3872
Q 1728 3872 2195 3411
z
" transform="scale(0.015625)"/>
       <path id="STHeiti-48" d="M 3347 1485
L 3718 1293
Q 3168 269 2093 269
Q 1325 269 825 797
Q 326 1325 326 2067
Q 326 2810 828 3341
Q 1331 3872 2070 3872
Q 2810 3872 3312 3379
Q 3814 2886 3834 2035
L 774 2035
Q 794 1421 1162 1046
Q 1530 672 2054 672
Q 2918 672 3347 1485
z
M 3347 2413
Q 3258 2899 2899 3174
Q 2541 3450 2074 3450
Q 1114 3450 819 2413
L 3347 2413
z
" transform="scale(0.015625)"/>
       <path id="STHeiti-3" transform="scale(0.015625)"/>
       <path id="STHeiti-4d" d="M 288 4730
Q 288 4877 397 4985
Q 506 5094 653 5094
Q 800 5094 905 4988
Q 1011 4883 1011 4736
Q 1011 4589 902 4480
Q 794 4371 653 4371
Q 512 4371 400 4480
Q 288 4589 288 4730
z
M 435 3782
L 877 3782
L 877 77
Q 877 -339 768 -534
Q 659 -730 454 -730
Q 250 -730 0 -634
L 0 -243
Q 186 -326 275 -326
Q 365 -326 400 -217
Q 435 -109 435 205
L 435 3782
z
" transform="scale(0.015625)"/>
       <path id="STHeiti-58" d="M 3405 384
L 2963 384
L 2963 992
Q 2438 294 1690 294
Q 1306 294 998 502
Q 691 710 563 1046
Q 435 1382 435 2035
L 435 3782
L 870 3782
L 870 2163
Q 870 1568 924 1357
Q 979 1146 1091 998
Q 1203 851 1376 774
Q 1549 698 1795 698
Q 2042 698 2278 819
Q 2515 941 2681 1158
Q 2848 1376 2905 1606
Q 2963 1837 2963 2534
L 2963 3782
L 3405 3782
L 3405 384
z
" transform="scale(0.015625)"/>
       <path id="STHeiti-51" d="M 486 3782
L 928 3782
L 928 3174
Q 1453 3872 2202 3872
Q 2586 3872 2893 3664
Q 3200 3456 3328 3120
Q 3456 2784 3456 2131
L 3456 384
L 3021 384
L 3021 2003
Q 3021 2598 2966 2809
Q 2912 3021 2800 3168
Q 2688 3315 2515 3392
Q 2342 3469 2096 3469
Q 1850 3469 1613 3347
Q 1376 3226 1209 3008
Q 1043 2790 985 2560
Q 928 2330 928 1632
L 928 384
L 486 384
L 486 3782
z
" transform="scale(0.015625)"/>
       <path id="STHeiti-46" d="M 4038 3078
L 3693 2861
Q 3245 3456 2464 3456
Q 1850 3456 1434 3062
Q 1018 2669 1018 2086
Q 1018 1504 1427 1088
Q 1837 672 2464 672
Q 3213 672 3693 1267
L 4038 1037
Q 3782 666 3350 467
Q 2918 269 2419 269
Q 1632 269 1104 787
Q 576 1306 576 2054
Q 576 2803 1110 3337
Q 1645 3872 2483 3872
Q 2976 3872 3395 3661
Q 3814 3450 4038 3078
z
" transform="scale(0.015625)"/>
       <path id="STHeiti-57" d="M 1312 922
Q 1312 749 1357 717
Q 1402 685 1587 685
L 1850 685
L 1850 314
Q 1581 269 1427 269
Q 1139 269 1004 409
Q 870 550 870 851
L 870 3411
L 269 3411
L 269 3782
L 870 3782
L 870 5094
L 1312 5094
L 1312 3782
L 2003 3782
L 2003 3411
L 1312 3411
L 1312 922
z
" transform="scale(0.015625)"/>
       <path id="STHeiti-4c" d="M 282 4730
Q 282 4877 387 4985
Q 493 5094 643 5094
Q 794 5094 899 4988
Q 1005 4883 1005 4732
Q 1005 4582 899 4476
Q 794 4371 643 4371
Q 493 4371 387 4480
Q 282 4589 282 4730
z
M 422 3782
L 864 3782
L 864 384
L 422 384
L 422 3782
z
" transform="scale(0.015625)"/>
       <path id="STHeiti-52" d="M 326 2061
Q 326 2810 841 3341
Q 1357 3872 2096 3872
Q 2835 3872 3350 3341
Q 3866 2810 3866 2067
Q 3866 1325 3357 797
Q 2848 269 2099 269
Q 1350 269 838 797
Q 326 1325 326 2061
z
M 3424 2054
Q 3424 2618 3030 3030
Q 2637 3443 2096 3443
Q 1555 3443 1164 3030
Q 774 2618 774 2048
Q 774 1478 1152 1081
Q 1530 685 2090 685
Q 2650 685 3037 1085
Q 3424 1485 3424 2054
z
" transform="scale(0.015625)"/>
       <path id="STHeiti-50" d="M 486 3782
L 922 3782
L 922 3194
Q 1376 3872 2086 3872
Q 2464 3872 2761 3657
Q 3059 3443 3162 3053
Q 3373 3450 3699 3661
Q 4026 3872 4451 3872
Q 4877 3872 5222 3542
Q 5568 3213 5568 2240
L 5568 384
L 5120 384
L 5120 2240
Q 5120 2707 5062 2928
Q 5005 3149 4813 3299
Q 4621 3450 4304 3450
Q 3987 3450 3712 3238
Q 3437 3027 3334 2700
Q 3232 2374 3232 1715
L 3232 384
L 2803 384
L 2803 2125
Q 2803 2669 2745 2902
Q 2688 3136 2489 3293
Q 2291 3450 2003 3450
Q 1715 3450 1462 3280
Q 1210 3110 1066 2816
Q 922 2522 922 1824
L 922 384
L 486 384
L 486 3782
z
" transform="scale(0.015625)"/>
       <path id="STHeiti-53" d="M 493 3782
L 928 3782
L 928 3162
Q 1446 3872 2278 3872
Q 2995 3872 3513 3344
Q 4032 2816 4032 2073
Q 4032 1331 3520 800
Q 3008 269 2291 269
Q 1510 269 928 966
L 928 -858
L 493 -858
L 493 3782
z
M 3597 2067
Q 3597 2637 3203 3043
Q 2810 3450 2240 3450
Q 1670 3450 1283 3050
Q 896 2650 896 2061
Q 896 1472 1293 1072
Q 1690 672 2243 672
Q 2797 672 3197 1078
Q 3597 1485 3597 2067
z
" transform="scale(0.015625)"/>
       <path id="STHeiti-55" d="M 320 3782
L 768 3782
L 768 3290
Q 947 3590 1116 3731
Q 1286 3872 1494 3872
Q 1702 3872 1914 3757
L 1683 3386
Q 1587 3443 1485 3443
Q 1286 3443 1110 3238
Q 934 3034 851 2710
Q 768 2387 768 1536
L 768 384
L 320 384
L 320 3782
z
" transform="scale(0.015625)"/>
       <path id="STHeiti-44" d="M 3872 3782
L 3872 384
L 3443 384
L 3443 966
Q 2861 269 2112 269
Q 1363 269 848 803
Q 333 1338 333 2077
Q 333 2816 851 3344
Q 1370 3872 2093 3872
Q 2925 3872 3443 3162
L 3443 3782
L 3872 3782
z
M 3469 2067
Q 3469 2650 3078 3050
Q 2688 3450 2121 3450
Q 1555 3450 1164 3037
Q 774 2624 774 2061
Q 774 1498 1171 1085
Q 1568 672 2121 672
Q 2675 672 3072 1069
Q 3469 1466 3469 2067
z
" transform="scale(0.015625)"/>
       <path id="STHeiti-b" d="M 1466 5370
L 1978 5370
Q 1651 4704 1475 3865
Q 1299 3027 1299 2176
Q 1299 506 1824 -762
L 1338 -762
Q 832 480 832 2118
Q 832 3891 1466 5370
z
" transform="scale(0.015625)"/>
       <path id="STHeiti-1be3" d="M 1613 5210
Q 1952 5210 2173 4995
Q 2394 4781 2394 4454
Q 2394 4128 2173 3910
Q 1952 3693 1622 3693
Q 1293 3693 1062 3913
Q 832 4134 832 4451
Q 832 4768 1059 4989
Q 1286 5210 1613 5210
z
M 2176 4435
Q 2176 4666 2009 4829
Q 1843 4992 1616 4992
Q 1389 4992 1238 4832
Q 1088 4672 1088 4441
Q 1088 4211 1238 4051
Q 1389 3891 1613 3891
Q 1837 3891 2006 4054
Q 2176 4218 2176 4435
z
" transform="scale(0.015625)"/>
       <path id="STHeiti-26" d="M 4838 4128
L 4480 3853
Q 3840 4646 2835 4646
Q 2016 4646 1424 4070
Q 832 3494 832 2659
Q 832 1824 1411 1264
Q 1990 704 2861 704
Q 3834 704 4480 1459
L 4838 1184
Q 4499 736 3980 502
Q 3462 269 2835 269
Q 1741 269 1043 960
Q 346 1651 346 2707
Q 346 3360 669 3913
Q 992 4467 1565 4780
Q 2138 5094 2797 5094
Q 3456 5094 3981 4844
Q 4506 4595 4838 4128
z
" transform="scale(0.015625)"/>
       <path id="STHeiti-c" d="M 896 5370
Q 1530 3891 1530 2118
Q 1530 480 1024 -762
L 538 -762
Q 1062 506 1062 2176
Q 1062 3027 886 3865
Q 710 4704 384 5370
L 896 5370
z
" transform="scale(0.015625)"/>
      </defs>
      <use xlink:href="#STHeiti-38"/>
      <use xlink:href="#STHeiti-56" transform="translate(65.5 0)"/>
      <use xlink:href="#STHeiti-48" transform="translate(104.296875 0)"/>
      <use xlink:href="#STHeiti-3" transform="translate(169.296875 0)"/>
      <use xlink:href="#STHeiti-4d" transform="translate(194.296875 0)"/>
      <use xlink:href="#STHeiti-58" transform="translate(214.59375 0)"/>
      <use xlink:href="#STHeiti-51" transform="translate(275.390625 0)"/>
      <use xlink:href="#STHeiti-46" transform="translate(336.390625 0)"/>
      <use xlink:href="#STHeiti-57" transform="translate(401.09375 0)"/>
      <use xlink:href="#STHeiti-4c" transform="translate(435 0)"/>
      <use xlink:href="#STHeiti-52" transform="translate(455 0)"/>
      <use xlink:href="#STHeiti-51" transform="translate(520.5 0)"/>
      <use xlink:href="#STHeiti-3" transform="translate(581.5 0)"/>
      <use xlink:href="#STHeiti-57" transform="translate(606.5 0)"/>
      <use xlink:href="#STHeiti-48" transform="translate(640.40625 0)"/>
      <use xlink:href="#STHeiti-50" transform="translate(705.40625 0)"/>
      <use xlink:href="#STHeiti-53" transform="translate(799.203125 0)"/>
      <use xlink:href="#STHeiti-48" transform="translate(867.40625 0)"/>
      <use xlink:href="#STHeiti-55" transform="translate(932.40625 0)"/>
      <use xlink:href="#STHeiti-44" transform="translate(962.5 0)"/>
      <use xlink:href="#STHeiti-57" transform="translate(1030.796875 0)"/>
      <use xlink:href="#STHeiti-58" transform="translate(1064.703125 0)"/>
      <use xlink:href="#STHeiti-55" transform="translate(1125.5 0)"/>
      <use xlink:href="#STHeiti-48" transform="translate(1155.59375 0)"/>
      <use xlink:href="#STHeiti-3" transform="translate(1220.59375 0)"/>
      <use xlink:href="#STHeiti-b" transform="translate(1245.59375 0)"/>
      <use xlink:href="#STHeiti-1be3" transform="translate(1282.5 0)"/>
      <use xlink:href="#STHeiti-26" transform="translate(1382.5 0)"/>
      <use xlink:href="#STHeiti-c" transform="translate(1463.796875 0)"/>
     </g>
    </g>
   </g>
   <g id="matplotlib.axis_2">
    <g id="ytick_1">
     <g id="line2d_5">
      <path d="M 47.32 272.462888
L 622.8 272.462888
" clip-path="url(#pba9628708d)" style="fill: none; stroke: #b0b0b0; stroke-opacity: 0.25; stroke-width: 0.8; stroke-linecap: square"/>
     </g>
     <g id="line2d_6">
      <defs>
       <path id="ma5e855f804" d="M 0 0
L -3.5 0
" style="stroke: #000000; stroke-width: 0.8"/>
      </defs>
      <g>
       <use xlink:href="#ma5e855f804" x="47.32" y="272.462888" style="stroke: #000000; stroke-width: 0.8"/>
      </g>
     </g>
     <g id="text_6">
      <!-- $\mathdefault{10^{3}}$ -->
      <g transform="translate(24.92 277.362888) scale(0.1 -0.1)">
       <defs>
        <path id="STHeiti-16" d="M 845 3917
L 378 3917
Q 506 4486 867 4790
Q 1229 5094 1750 5094
Q 2272 5094 2659 4748
Q 3046 4403 3046 3910
Q 3046 3315 2458 2970
Q 2861 2803 3081 2473
Q 3302 2144 3302 1754
Q 3302 1146 2857 707
Q 2413 269 1734 269
Q 1133 269 742 611
Q 352 954 224 1613
L 672 1613
Q 794 1158 1046 937
Q 1299 717 1760 717
Q 2221 717 2534 1011
Q 2848 1306 2848 1741
Q 2848 2176 2502 2441
Q 2157 2707 1498 2720
L 1498 3142
Q 1971 3142 2268 3360
Q 2566 3578 2566 3901
Q 2566 4224 2326 4438
Q 2086 4653 1747 4653
Q 1408 4653 1200 4470
Q 992 4288 845 3917
z
" transform="scale(0.015625)"/>
       </defs>
       <use xlink:href="#STHeiti-14" transform="translate(0 0.984375)"/>
       <use xlink:href="#STHeiti-13" transform="translate(55.399948 0.984375)"/>
       <use xlink:href="#STHeiti-16" transform="translate(111.756927 42.284375) scale(0.7)"/>
      </g>
     </g>
    </g>
    <g id="ytick_2">
     <g id="line2d_7">
      <path d="M 47.32 191.109604
L 622.8 191.109604
" clip-path="url(#pba9628708d)" style="fill: none; stroke: #b0b0b0; stroke-opacity: 0.25; stroke-width: 0.8; stroke-linecap: square"/>
     </g>
     <g id="line2d_8">
      <g>
       <use xlink:href="#ma5e855f804" x="47.32" y="191.109604" style="stroke: #000000; stroke-width: 0.8"/>
      </g>
     </g>
     <g id="text_7">
      <!-- $\mathdefault{10^{4}}$ -->
      <g transform="translate(24.92 196.009604) scale(0.1 -0.1)">
       <defs>
        <path id="STHeiti-17" d="M 2726 5094
L 2816 5094
L 2816 1894
L 3373 1894
L 3373 1453
L 2816 1453
L 2816 384
L 2362 384
L 2362 1453
L 160 1453
L 2726 5094
z
M 2362 1894
L 2362 3808
L 1005 1894
L 2362 1894
z
" transform="scale(0.015625)"/>
       </defs>
       <use xlink:href="#STHeiti-14" transform="translate(0 0.984375)"/>
       <use xlink:href="#STHeiti-13" transform="translate(55.399948 0.984375)"/>
       <use xlink:href="#STHeiti-17" transform="translate(111.756927 42.284375) scale(0.7)"/>
      </g>
     </g>
    </g>
    <g id="ytick_3">
     <g id="line2d_9">
      <path d="M 47.32 109.756321
L 622.8 109.756321
" clip-path="url(#pba9628708d)" style="fill: none; stroke: #b0b0b0; stroke-opacity: 0.25; stroke-width: 0.8; stroke-linecap: square"/>
     </g>
     <g id="line2d_10">
      <g>
       <use xlink:href="#ma5e855f804" x="47.32" y="109.756321" style="stroke: #000000; stroke-width: 0.8"/>
      </g>
     </g>
     <g id="text_8">
      <!-- $\mathdefault{10^{5}}$ -->
      <g transform="translate(24.92 114.556321) scale(0.1 -0.1)">
       <use xlink:href="#STHeiti-14" transform="translate(0 0.242188)"/>
       <use xlink:href="#STHeiti-13" transform="translate(55.399948 0.242188)"/>
       <use xlink:href="#STHeiti-18" transform="translate(111.756927 41.542187) scale(0.7)"/>
      </g>
     </g>
    </g>
    <g id="ytick_4">
     <g id="line2d_11">
      <path d="M 47.32 28.403038
L 622.8 28.403038
" clip-path="url(#pba9628708d)" style="fill: none; stroke: #b0b0b0; stroke-opacity: 0.25; stroke-width: 0.8; stroke-linecap: square"/>
     </g>
     <g id="line2d_12">
      <g>
       <use xlink:href="#ma5e855f804" x="47.32" y="28.403038" style="stroke: #000000; stroke-width: 0.8"/>
      </g>
     </g>
     <g id="text_9">
      <!-- $\mathdefault{10^{6}}$ -->
      <g transform="translate(24.92 33.303038) scale(0.1 -0.1)">
       <defs>
        <path id="STHeiti-19" d="M 2349 5094
L 2726 4851
L 1485 2970
Q 1747 3059 1984 3059
Q 2496 3059 2880 2652
Q 3264 2246 3264 1660
Q 3264 1075 2845 672
Q 2426 269 1827 269
Q 1229 269 829 678
Q 429 1088 429 1677
Q 429 1958 537 2256
Q 646 2554 954 3014
L 2349 5094
z
M 2810 1683
Q 2810 2086 2528 2368
Q 2246 2650 1843 2650
Q 1440 2650 1158 2368
Q 877 2086 877 1683
Q 877 1280 1161 998
Q 1446 717 1843 717
Q 2240 717 2525 998
Q 2810 1280 2810 1683
z
" transform="scale(0.015625)"/>
       </defs>
       <use xlink:href="#STHeiti-14" transform="translate(0 0.984375)"/>
       <use xlink:href="#STHeiti-13" transform="translate(55.399948 0.984375)"/>
       <use xlink:href="#STHeiti-19" transform="translate(111.756927 42.284375) scale(0.7)"/>
      </g>
     </g>
    </g>
    <g id="ytick_5">
     <g id="line2d_13">
      <defs>
       <path id="m1697755e13" d="M 0 0
L -2 0
" style="stroke: #000000; stroke-width: 0.6"/>
      </defs>
      <g>
       <use xlink:href="#m1697755e13" x="47.32" y="296.952666" style="stroke: #000000; stroke-width: 0.6"/>
      </g>
     </g>
    </g>
    <g id="ytick_6">
     <g id="line2d_14">
      <g>
       <use xlink:href="#m1697755e13" x="47.32" y="290.511012" style="stroke: #000000; stroke-width: 0.6"/>
      </g>
     </g>
    </g>
    <g id="ytick_7">
     <g id="line2d_15">
      <g>
       <use xlink:href="#m1697755e13" x="47.32" y="285.064671" style="stroke: #000000; stroke-width: 0.6"/>
      </g>
     </g>
    </g>
    <g id="ytick_8">
     <g id="line2d_16">
      <g>
       <use xlink:href="#m1697755e13" x="47.32" y="280.346835" style="stroke: #000000; stroke-width: 0.6"/>
      </g>
     </g>
    </g>
    <g id="ytick_9">
     <g id="line2d_17">
      <g>
       <use xlink:href="#m1697755e13" x="47.32" y="276.18541" style="stroke: #000000; stroke-width: 0.6"/>
      </g>
     </g>
    </g>
    <g id="ytick_10">
     <g id="line2d_18">
      <g>
       <use xlink:href="#m1697755e13" x="47.32" y="247.973109" style="stroke: #000000; stroke-width: 0.6"/>
      </g>
     </g>
    </g>
    <g id="ytick_11">
     <g id="line2d_19">
      <g>
       <use xlink:href="#m1697755e13" x="47.32" y="233.647507" style="stroke: #000000; stroke-width: 0.6"/>
      </g>
     </g>
    </g>
    <g id="ytick_12">
     <g id="line2d_20">
      <g>
       <use xlink:href="#m1697755e13" x="47.32" y="223.483331" style="stroke: #000000; stroke-width: 0.6"/>
      </g>
     </g>
    </g>
    <g id="ytick_13">
     <g id="line2d_21">
      <g>
       <use xlink:href="#m1697755e13" x="47.32" y="215.599383" style="stroke: #000000; stroke-width: 0.6"/>
      </g>
     </g>
    </g>
    <g id="ytick_14">
     <g id="line2d_22">
      <g>
       <use xlink:href="#m1697755e13" x="47.32" y="209.157729" style="stroke: #000000; stroke-width: 0.6"/>
      </g>
     </g>
    </g>
    <g id="ytick_15">
     <g id="line2d_23">
      <g>
       <use xlink:href="#m1697755e13" x="47.32" y="203.711387" style="stroke: #000000; stroke-width: 0.6"/>
      </g>
     </g>
    </g>
    <g id="ytick_16">
     <g id="line2d_24">
      <g>
       <use xlink:href="#m1697755e13" x="47.32" y="198.993552" style="stroke: #000000; stroke-width: 0.6"/>
      </g>
     </g>
    </g>
    <g id="ytick_17">
     <g id="line2d_25">
      <g>
       <use xlink:href="#m1697755e13" x="47.32" y="194.832127" style="stroke: #000000; stroke-width: 0.6"/>
      </g>
     </g>
    </g>
    <g id="ytick_18">
     <g id="line2d_26">
      <g>
       <use xlink:href="#m1697755e13" x="47.32" y="166.619826" style="stroke: #000000; stroke-width: 0.6"/>
      </g>
     </g>
    </g>
    <g id="ytick_19">
     <g id="line2d_27">
      <g>
       <use xlink:href="#m1697755e13" x="47.32" y="152.294224" style="stroke: #000000; stroke-width: 0.6"/>
      </g>
     </g>
    </g>
    <g id="ytick_20">
     <g id="line2d_28">
      <g>
       <use xlink:href="#m1697755e13" x="47.32" y="142.130048" style="stroke: #000000; stroke-width: 0.6"/>
      </g>
     </g>
    </g>
    <g id="ytick_21">
     <g id="line2d_29">
      <g>
       <use xlink:href="#m1697755e13" x="47.32" y="134.2461" style="stroke: #000000; stroke-width: 0.6"/>
      </g>
     </g>
    </g>
    <g id="ytick_22">
     <g id="line2d_30">
      <g>
       <use xlink:href="#m1697755e13" x="47.32" y="127.804446" style="stroke: #000000; stroke-width: 0.6"/>
      </g>
     </g>
    </g>
    <g id="ytick_23">
     <g id="line2d_31">
      <g>
       <use xlink:href="#m1697755e13" x="47.32" y="122.358104" style="stroke: #000000; stroke-width: 0.6"/>
      </g>
     </g>
    </g>
    <g id="ytick_24">
     <g id="line2d_32">
      <g>
       <use xlink:href="#m1697755e13" x="47.32" y="117.640269" style="stroke: #000000; stroke-width: 0.6"/>
      </g>
     </g>
    </g>
    <g id="ytick_25">
     <g id="line2d_33">
      <g>
       <use xlink:href="#m1697755e13" x="47.32" y="113.478843" style="stroke: #000000; stroke-width: 0.6"/>
      </g>
     </g>
    </g>
    <g id="ytick_26">
     <g id="line2d_34">
      <g>
       <use xlink:href="#m1697755e13" x="47.32" y="85.266543" style="stroke: #000000; stroke-width: 0.6"/>
      </g>
     </g>
    </g>
    <g id="ytick_27">
     <g id="line2d_35">
      <g>
       <use xlink:href="#m1697755e13" x="47.32" y="70.940941" style="stroke: #000000; stroke-width: 0.6"/>
      </g>
     </g>
    </g>
    <g id="ytick_28">
     <g id="line2d_36">
      <g>
       <use xlink:href="#m1697755e13" x="47.32" y="60.776765" style="stroke: #000000; stroke-width: 0.6"/>
      </g>
     </g>
    </g>
    <g id="ytick_29">
     <g id="line2d_37">
      <g>
       <use xlink:href="#m1697755e13" x="47.32" y="52.892817" style="stroke: #000000; stroke-width: 0.6"/>
      </g>
     </g>
    </g>
    <g id="ytick_30">
     <g id="line2d_38">
      <g>
       <use xlink:href="#m1697755e13" x="47.32" y="46.451162" style="stroke: #000000; stroke-width: 0.6"/>
      </g>
     </g>
    </g>
    <g id="ytick_31">
     <g id="line2d_39">
      <g>
       <use xlink:href="#m1697755e13" x="47.32" y="41.004821" style="stroke: #000000; stroke-width: 0.6"/>
      </g>
     </g>
    </g>
    <g id="ytick_32">
     <g id="line2d_40">
      <g>
       <use xlink:href="#m1697755e13" x="47.32" y="36.286986" style="stroke: #000000; stroke-width: 0.6"/>
      </g>
     </g>
    </g>
    <g id="ytick_33">
     <g id="line2d_41">
      <g>
       <use xlink:href="#m1697755e13" x="47.32" y="32.12556" style="stroke: #000000; stroke-width: 0.6"/>
      </g>
     </g>
    </g>
    <g id="text_10">
     <!-- Lifetime estimate (seconds, log scale) -->
     <g transform="translate(19.52 255.831094) rotate(-90) scale(0.1 -0.1)">
      <defs>
       <path id="STHeiti-2f" d="M 557 4979
L 1024 4979
L 1024 826
L 2790 826
L 2790 384
L 557 384
L 557 4979
z
" transform="scale(0.015625)"/>
       <path id="STHeiti-49" d="M 1888 5005
L 1888 4576
Q 1638 4685 1443 4685
Q 1248 4685 1190 4560
Q 1133 4435 1133 4154
L 1133 3782
L 1843 3782
L 1843 3411
L 1133 3411
L 1133 384
L 691 384
L 691 3411
L 250 3411
L 250 3782
L 691 3782
L 691 4224
Q 691 4672 857 4883
Q 1024 5094 1376 5094
Q 1581 5094 1888 5005
z
" transform="scale(0.015625)"/>
       <path id="STHeiti-47" d="M 3878 5094
L 3878 384
L 3450 384
L 3450 966
Q 2867 269 2115 269
Q 1363 269 851 800
Q 339 1331 339 2073
Q 339 2816 857 3344
Q 1376 3872 2099 3872
Q 2931 3872 3450 3162
L 3450 5094
L 3878 5094
z
M 3475 2061
Q 3475 2643 3091 3046
Q 2707 3450 2131 3450
Q 1555 3450 1168 3037
Q 781 2624 781 2064
Q 781 1504 1177 1088
Q 1574 672 2115 672
Q 2656 672 3065 1065
Q 3475 1459 3475 2061
z
" transform="scale(0.015625)"/>
       <path id="STHeiti-f" d="M 922 1229
L 1344 1030
L 710 -154
L 397 -19
L 922 1229
z
" transform="scale(0.015625)"/>
       <path id="STHeiti-4f" d="M 422 5094
L 858 5094
L 858 384
L 422 384
L 422 5094
z
" transform="scale(0.015625)"/>
       <path id="STHeiti-4a" d="M 3462 3782
L 3904 3782
L 3904 1158
Q 3904 461 3782 134
Q 3661 -192 3430 -409
Q 3200 -627 2873 -742
Q 2547 -858 2157 -858
Q 826 -858 403 205
L 877 205
Q 1248 -461 2138 -461
Q 2566 -461 2883 -294
Q 3200 -128 3331 131
Q 3462 390 3462 941
L 3462 1088
Q 3200 762 2841 602
Q 2483 442 2086 442
Q 1344 442 851 947
Q 358 1453 358 2138
Q 358 2848 883 3360
Q 1408 3872 2153 3872
Q 2899 3872 3462 3194
L 3462 3782
z
M 3482 2138
Q 3482 2694 3104 3072
Q 2726 3450 2170 3450
Q 1581 3450 1190 3043
Q 800 2637 800 2112
Q 800 1587 1177 1219
Q 1555 851 2144 851
Q 2733 851 3107 1209
Q 3482 1568 3482 2138
z
" transform="scale(0.015625)"/>
      </defs>
      <use xlink:href="#STHeiti-2f"/>
      <use xlink:href="#STHeiti-4c" transform="translate(46.203125 0)"/>
      <use xlink:href="#STHeiti-49" transform="translate(66.203125 0)"/>
      <use xlink:href="#STHeiti-48" transform="translate(97.609375 0)"/>
      <use xlink:href="#STHeiti-57" transform="translate(162.609375 0)"/>
      <use xlink:href="#STHeiti-4c" transform="translate(196.515625 0)"/>
      <use xlink:href="#STHeiti-50" transform="translate(216.515625 0)"/>
      <use xlink:href="#STHeiti-48" transform="translate(310.3125 0)"/>
      <use xlink:href="#STHeiti-3" transform="translate(375.3125 0)"/>
      <use xlink:href="#STHeiti-48" transform="translate(400.3125 0)"/>
      <use xlink:href="#STHeiti-56" transform="translate(465.3125 0)"/>
      <use xlink:href="#STHeiti-57" transform="translate(504.109375 0)"/>
      <use xlink:href="#STHeiti-4c" transform="translate(538.015625 0)"/>
      <use xlink:href="#STHeiti-50" transform="translate(558.015625 0)"/>
      <use xlink:href="#STHeiti-44" transform="translate(651.8125 0)"/>
      <use xlink:href="#STHeiti-57" transform="translate(720.109375 0)"/>
      <use xlink:href="#STHeiti-48" transform="translate(754.015625 0)"/>
      <use xlink:href="#STHeiti-3" transform="translate(819.015625 0)"/>
      <use xlink:href="#STHeiti-b" transform="translate(844.015625 0)"/>
      <use xlink:href="#STHeiti-56" transform="translate(880.921875 0)"/>
      <use xlink:href="#STHeiti-48" transform="translate(919.71875 0)"/>
      <use xlink:href="#STHeiti-46" transform="translate(984.71875 0)"/>
      <use xlink:href="#STHeiti-52" transform="translate(1049.421875 0)"/>
      <use xlink:href="#STHeiti-51" transform="translate(1114.921875 0)"/>
      <use xlink:href="#STHeiti-47" transform="translate(1175.921875 0)"/>
      <use xlink:href="#STHeiti-56" transform="translate(1244.421875 0)"/>
      <use xlink:href="#STHeiti-f" transform="translate(1283.21875 0)"/>
      <use xlink:href="#STHeiti-3" transform="translate(1310.921875 0)"/>
      <use xlink:href="#STHeiti-4f" transform="translate(1335.921875 0)"/>
      <use xlink:href="#STHeiti-52" transform="translate(1355.921875 0)"/>
      <use xlink:href="#STHeiti-4a" transform="translate(1421.421875 0)"/>
      <use xlink:href="#STHeiti-3" transform="translate(1488.71875 0)"/>
      <use xlink:href="#STHeiti-56" transform="translate(1513.71875 0)"/>
      <use xlink:href="#STHeiti-46" transform="translate(1552.515625 0)"/>
      <use xlink:href="#STHeiti-44" transform="translate(1617.21875 0)"/>
      <use xlink:href="#STHeiti-4f" transform="translate(1685.515625 0)"/>
      <use xlink:href="#STHeiti-48" transform="translate(1705.515625 0)"/>
      <use xlink:href="#STHeiti-c" transform="translate(1770.515625 0)"/>
     </g>
    </g>
   </g>
   <g id="patch_11">
    <path d="M 47.32 303.8
L 47.32 27.12
" style="fill: none; stroke: #000000; stroke-width: 0.8; stroke-linejoin: miter; stroke-linecap: square"/>
   </g>
   <g id="patch_12">
    <path d="M 622.8 303.8
L 622.8 27.12
" style="fill: none; stroke: #000000; stroke-width: 0.8; stroke-linejoin: miter; stroke-linecap: square"/>
   </g>
   <g id="patch_13">
    <path d="M 47.32 303.8
L 622.8 303.8
" style="fill: none; stroke: #000000; stroke-width: 0.8; stroke-linejoin: miter; stroke-linecap: square"/>
   </g>
   <g id="patch_14">
    <path d="M 47.32 27.12
L 622.8 27.12
" style="fill: none; stroke: #000000; stroke-width: 0.8; stroke-linejoin: miter; stroke-linecap: square"/>
   </g>
   <g id="text_11">
    <!-- 22,906 s+ -->
    <g transform="translate(94.906723 157.846396) scale(0.07 -0.07)">
     <defs>
      <path id="STHeiti-1c" d="M 1229 269
L 851 512
L 2093 2394
Q 1850 2310 1613 2310
Q 1062 2310 688 2707
Q 314 3104 314 3696
Q 314 4288 730 4691
Q 1146 5094 1750 5094
Q 2355 5094 2748 4681
Q 3142 4269 3142 3693
Q 3142 3373 3011 3049
Q 2880 2726 2624 2349
L 1229 269
z
M 762 3680
Q 762 3277 1043 2995
Q 1325 2714 1728 2714
Q 2131 2714 2412 2998
Q 2694 3283 2694 3680
Q 2694 4077 2412 4361
Q 2131 4646 1728 4646
Q 1325 4646 1043 4364
Q 762 4083 762 3680
z
" transform="scale(0.015625)"/>
      <path id="STHeiti-e" d="M 1728 2899
L 1728 4250
L 2150 4250
L 2150 2899
L 3520 2899
L 3520 2470
L 2150 2470
L 2150 1114
L 1728 1114
L 1728 2470
L 358 2470
L 358 2899
L 1728 2899
z
" transform="scale(0.015625)"/>
     </defs>
     <use xlink:href="#STHeiti-15"/>
     <use xlink:href="#STHeiti-15" transform="translate(55.40625 0)"/>
     <use xlink:href="#STHeiti-f" transform="translate(110.8125 0)"/>
     <use xlink:href="#STHeiti-1c" transform="translate(138.515625 0)"/>
     <use xlink:href="#STHeiti-13" transform="translate(193.921875 0)"/>
     <use xlink:href="#STHeiti-19" transform="translate(249.328125 0)"/>
     <use xlink:href="#STHeiti-3" transform="translate(304.734375 0)"/>
     <use xlink:href="#STHeiti-56" transform="translate(329.734375 0)"/>
     <use xlink:href="#STHeiti-e" transform="translate(368.53125 0)"/>
    </g>
   </g>
   <g id="text_12">
    <!-- 6,392 s+ -->
    <g transform="translate(231.656662 202.939563) scale(0.07 -0.07)">
     <use xlink:href="#STHeiti-19"/>
     <use xlink:href="#STHeiti-f" transform="translate(55.40625 0)"/>
     <use xlink:href="#STHeiti-16" transform="translate(83.109375 0)"/>
     <use xlink:href="#STHeiti-1c" transform="translate(138.515625 0)"/>
     <use xlink:href="#STHeiti-15" transform="translate(193.921875 0)"/>
     <use xlink:href="#STHeiti-3" transform="translate(249.328125 0)"/>
     <use xlink:href="#STHeiti-56" transform="translate(274.328125 0)"/>
     <use xlink:href="#STHeiti-e" transform="translate(313.125 0)"/>
    </g>
   </g>
   <g id="text_13">
    <!-- 3,055 s+ -->
    <g transform="translate(366.467381 229.026782) scale(0.07 -0.07)">
     <use xlink:href="#STHeiti-16"/>
     <use xlink:href="#STHeiti-f" transform="translate(55.40625 0)"/>
     <use xlink:href="#STHeiti-13" transform="translate(83.109375 0)"/>
     <use xlink:href="#STHeiti-18" transform="translate(138.515625 0)"/>
     <use xlink:href="#STHeiti-18" transform="translate(193.921875 0)"/>
     <use xlink:href="#STHeiti-3" transform="translate(249.328125 0)"/>
     <use xlink:href="#STHeiti-56" transform="translate(274.328125 0)"/>
     <use xlink:href="#STHeiti-e" transform="translate(313.125 0)"/>
    </g>
   </g>
   <g id="text_14">
    <!-- 1,572 s+ -->
    <g transform="translate(501.278101 252.493158) scale(0.07 -0.07)">
     <defs>
      <path id="STHeiti-1a" d="M 461 4979
L 3373 4979
L 915 269
L 538 461
L 2662 4544
L 461 4544
L 461 4979
z
" transform="scale(0.015625)"/>
     </defs>
     <use xlink:href="#STHeiti-14"/>
     <use xlink:href="#STHeiti-f" transform="translate(55.40625 0)"/>
     <use xlink:href="#STHeiti-18" transform="translate(83.109375 0)"/>
     <use xlink:href="#STHeiti-1a" transform="translate(138.515625 0)"/>
     <use xlink:href="#STHeiti-15" transform="translate(193.921875 0)"/>
     <use xlink:href="#STHeiti-3" transform="translate(249.328125 0)"/>
     <use xlink:href="#STHeiti-56" transform="translate(274.328125 0)"/>
     <use xlink:href="#STHeiti-e" transform="translate(313.125 0)"/>
    </g>
   </g>
   <g id="text_15">
    <!-- 271,660 s+ -->
    <g transform="translate(138.803149 70.466842) scale(0.07 -0.07)">
     <use xlink:href="#STHeiti-15"/>
     <use xlink:href="#STHeiti-1a" transform="translate(55.40625 0)"/>
     <use xlink:href="#STHeiti-14" transform="translate(110.8125 0)"/>
     <use xlink:href="#STHeiti-f" transform="translate(166.21875 0)"/>
     <use xlink:href="#STHeiti-19" transform="translate(193.921875 0)"/>
     <use xlink:href="#STHeiti-19" transform="translate(249.328125 0)"/>
     <use xlink:href="#STHeiti-13" transform="translate(304.734375 0)"/>
     <use xlink:href="#STHeiti-3" transform="translate(360.140625 0)"/>
     <use xlink:href="#STHeiti-56" transform="translate(385.140625 0)"/>
     <use xlink:href="#STHeiti-e" transform="translate(423.9375 0)"/>
    </g>
   </g>
   <g id="text_16">
    <!-- 75,812 s+ -->
    <g transform="translate(275.553088 115.560009) scale(0.07 -0.07)">
     <use xlink:href="#STHeiti-1a"/>
     <use xlink:href="#STHeiti-18" transform="translate(55.40625 0)"/>
     <use xlink:href="#STHeiti-f" transform="translate(110.8125 0)"/>
     <use xlink:href="#STHeiti-1b" transform="translate(138.515625 0)"/>
     <use xlink:href="#STHeiti-14" transform="translate(193.921875 0)"/>
     <use xlink:href="#STHeiti-15" transform="translate(249.328125 0)"/>
     <use xlink:href="#STHeiti-3" transform="translate(304.734375 0)"/>
     <use xlink:href="#STHeiti-56" transform="translate(329.734375 0)"/>
     <use xlink:href="#STHeiti-e" transform="translate(368.53125 0)"/>
    </g>
   </g>
   <g id="text_17">
    <!-- 36,230 s+ -->
    <g transform="translate(410.363807 141.647228) scale(0.07 -0.07)">
     <use xlink:href="#STHeiti-16"/>
     <use xlink:href="#STHeiti-19" transform="translate(55.40625 0)"/>
     <use xlink:href="#STHeiti-f" transform="translate(110.8125 0)"/>
     <use xlink:href="#STHeiti-15" transform="translate(138.515625 0)"/>
     <use xlink:href="#STHeiti-16" transform="translate(193.921875 0)"/>
     <use xlink:href="#STHeiti-13" transform="translate(249.328125 0)"/>
     <use xlink:href="#STHeiti-3" transform="translate(304.734375 0)"/>
     <use xlink:href="#STHeiti-56" transform="translate(329.734375 0)"/>
     <use xlink:href="#STHeiti-e" transform="translate(368.53125 0)"/>
    </g>
   </g>
   <g id="text_18">
    <!-- 18,648 s+ -->
    <g transform="translate(545.174527 165.113604) scale(0.07 -0.07)">
     <use xlink:href="#STHeiti-14"/>
     <use xlink:href="#STHeiti-1b" transform="translate(55.40625 0)"/>
     <use xlink:href="#STHeiti-f" transform="translate(110.8125 0)"/>
     <use xlink:href="#STHeiti-19" transform="translate(138.515625 0)"/>
     <use xlink:href="#STHeiti-17" transform="translate(193.921875 0)"/>
     <use xlink:href="#STHeiti-1b" transform="translate(249.328125 0)"/>
     <use xlink:href="#STHeiti-3" transform="translate(304.734375 0)"/>
     <use xlink:href="#STHeiti-56" transform="translate(329.734375 0)"/>
     <use xlink:href="#STHeiti-e" transform="translate(368.53125 0)"/>
    </g>
   </g>
   <g id="text_19">
    <g id="patch_15">
     <path d="M 56.8296 64.8764
L 370.77335 64.8764
L 370.77335 33.4204
L 56.8296 33.4204
z
" style="fill: #ffffff; opacity: 0.86"/>
    </g>
    <!-- B10 = 10% failure time; η = 63.2% failure time -->
    <g style="fill: #516174" transform="translate(58.8296 42.8764) scale(0.08 -0.08)">
     <defs>
      <path id="STHeiti-25" d="M 570 4979
L 1478 4979
Q 2202 4979 2576 4688
Q 2950 4397 2950 3853
Q 2950 3552 2800 3299
Q 2650 3046 2362 2893
Q 2835 2739 3081 2432
Q 3328 2125 3328 1702
Q 3328 1133 2912 758
Q 2496 384 1837 384
L 570 384
L 570 4979
z
M 1024 4531
L 1024 3059
L 1286 3059
Q 1888 3059 2182 3251
Q 2477 3443 2477 3853
Q 2477 4531 1555 4531
L 1024 4531
z
M 1024 2598
L 1024 832
L 1594 832
Q 2086 832 2320 931
Q 2554 1030 2701 1238
Q 2848 1446 2848 1664
Q 2848 1882 2765 2048
Q 2682 2214 2518 2342
Q 2355 2470 2128 2534
Q 1901 2598 1280 2598
L 1024 2598
z
" transform="scale(0.015625)"/>
      <path id="STHeiti-20" d="M 3520 3584
L 3520 3155
L 358 3155
L 358 3584
L 3520 3584
z
M 3520 2208
L 3520 1779
L 358 1779
L 358 2208
L 3520 2208
z
" transform="scale(0.015625)"/>
      <path id="STHeiti-8" d="M 4314 5184
L 966 64
L 550 64
L 3603 4730
Q 3232 4640 2845 4614
Q 2458 4589 2278 4595
L 2112 4602
Q 2304 4333 2304 4032
Q 2304 3571 1993 3248
Q 1683 2925 1225 2925
Q 768 2925 454 3238
Q 141 3552 141 4006
Q 141 4461 464 4774
Q 787 5088 1210 5088
Q 1382 5088 1702 5021
Q 2022 4954 2490 4954
Q 3232 4954 3949 5184
L 4314 5184
z
M 1914 4013
Q 1914 4301 1712 4499
Q 1510 4698 1225 4698
Q 941 4698 739 4496
Q 538 4294 538 4012
Q 538 3731 739 3529
Q 941 3328 1225 3328
Q 1510 3328 1712 3526
Q 1914 3725 1914 4013
z
M 2656 1331
Q 2656 1773 2973 2093
Q 3290 2413 3734 2413
Q 4179 2413 4496 2096
Q 4813 1779 4813 1331
Q 4813 883 4496 566
Q 4179 250 3734 250
Q 3290 250 2973 566
Q 2656 883 2656 1331
z
M 4422 1331
Q 4422 1613 4220 1814
Q 4019 2016 3734 2016
Q 3450 2016 3251 1814
Q 3053 1613 3053 1331
Q 3053 1050 3251 848
Q 3450 646 3734 646
Q 4019 646 4220 844
Q 4422 1043 4422 1331
z
" transform="scale(0.015625)"/>
      <path id="STHeiti-1e" d="M 582 3482
Q 582 3642 697 3757
Q 813 3872 969 3872
Q 1126 3872 1238 3760
Q 1350 3648 1350 3485
Q 1350 3322 1241 3210
Q 1133 3098 969 3098
Q 806 3098 694 3210
Q 582 3322 582 3482
z
M 922 1229
L 1344 1030
L 710 -154
L 397 -19
L 922 1229
z
" transform="scale(0.015625)"/>
      <path id="STHeiti-1b4" d="M 3456 -858
L 3021 -858
L 3021 2003
Q 3021 2675 2937 2924
Q 2854 3174 2643 3321
Q 2432 3469 2093 3469
Q 1754 3469 1456 3248
Q 1158 3027 1043 2745
Q 928 2464 928 1632
L 928 384
L 486 384
L 486 3782
L 928 3782
L 928 3174
Q 1446 3872 2202 3872
Q 2566 3872 2857 3689
Q 3149 3507 3302 3177
Q 3456 2848 3456 2131
L 3456 -858
z
" transform="scale(0.015625)"/>
      <path id="STHeiti-11" d="M 582 685
Q 582 845 697 957
Q 813 1069 969 1069
Q 1126 1069 1238 957
Q 1350 845 1350 681
Q 1350 518 1238 406
Q 1126 294 969 294
Q 813 294 697 409
Q 582 525 582 685
z
" transform="scale(0.015625)"/>
     </defs>
     <use xlink:href="#STHeiti-25"/>
     <use xlink:href="#STHeiti-14" transform="translate(57.40625 0)"/>
     <use xlink:href="#STHeiti-13" transform="translate(112.8125 0)"/>
     <use xlink:href="#STHeiti-3" transform="translate(168.21875 0)"/>
     <use xlink:href="#STHeiti-20" transform="translate(193.21875 0)"/>
     <use xlink:href="#STHeiti-3" transform="translate(253.8125 0)"/>
     <use xlink:href="#STHeiti-14" transform="translate(278.8125 0)"/>
     <use xlink:href="#STHeiti-13" transform="translate(334.21875 0)"/>
     <use xlink:href="#STHeiti-8" transform="translate(389.625 0)"/>
     <use xlink:href="#STHeiti-3" transform="translate(467.125 0)"/>
     <use xlink:href="#STHeiti-49" transform="translate(492.125 0)"/>
     <use xlink:href="#STHeiti-44" transform="translate(523.53125 0)"/>
     <use xlink:href="#STHeiti-4c" transform="translate(591.828125 0)"/>
     <use xlink:href="#STHeiti-4f" transform="translate(611.828125 0)"/>
     <use xlink:href="#STHeiti-58" transform="translate(631.828125 0)"/>
     <use xlink:href="#STHeiti-55" transform="translate(692.625 0)"/>
     <use xlink:href="#STHeiti-48" transform="translate(722.71875 0)"/>
     <use xlink:href="#STHeiti-3" transform="translate(787.71875 0)"/>
     <use xlink:href="#STHeiti-57" transform="translate(812.71875 0)"/>
     <use xlink:href="#STHeiti-4c" transform="translate(846.625 0)"/>
     <use xlink:href="#STHeiti-50" transform="translate(866.625 0)"/>
     <use xlink:href="#STHeiti-48" transform="translate(960.421875 0)"/>
     <use xlink:href="#STHeiti-1e" transform="translate(1025.421875 0)"/>
     <use xlink:href="#STHeiti-3" transform="translate(1053.125 0)"/>
     <use xlink:href="#STHeiti-1b4" transform="translate(1078.125 0)"/>
     <use xlink:href="#STHeiti-3" transform="translate(1139.125 0)"/>
     <use xlink:href="#STHeiti-20" transform="translate(1164.125 0)"/>
     <use xlink:href="#STHeiti-3" transform="translate(1224.71875 0)"/>
     <use xlink:href="#STHeiti-19" transform="translate(1249.71875 0)"/>
     <use xlink:href="#STHeiti-16" transform="translate(1305.125 0)"/>
     <use xlink:href="#STHeiti-11" transform="translate(1360.53125 0)"/>
     <use xlink:href="#STHeiti-15" transform="translate(1388.234375 0)"/>
     <use xlink:href="#STHeiti-8" transform="translate(1443.640625 0)"/>
     <use xlink:href="#STHeiti-3" transform="translate(1521.140625 0)"/>
     <use xlink:href="#STHeiti-49" transform="translate(1546.140625 0)"/>
     <use xlink:href="#STHeiti-44" transform="translate(1577.546875 0)"/>
     <use xlink:href="#STHeiti-4c" transform="translate(1645.84375 0)"/>
     <use xlink:href="#STHeiti-4f" transform="translate(1665.84375 0)"/>
     <use xlink:href="#STHeiti-58" transform="translate(1685.84375 0)"/>
     <use xlink:href="#STHeiti-55" transform="translate(1746.640625 0)"/>
     <use xlink:href="#STHeiti-48" transform="translate(1776.734375 0)"/>
     <use xlink:href="#STHeiti-3" transform="translate(1841.734375 0)"/>
     <use xlink:href="#STHeiti-57" transform="translate(1866.734375 0)"/>
     <use xlink:href="#STHeiti-4c" transform="translate(1900.640625 0)"/>
     <use xlink:href="#STHeiti-50" transform="translate(1920.640625 0)"/>
     <use xlink:href="#STHeiti-48" transform="translate(2014.4375 0)"/>
    </g>
    <!-- Gray: B10; blue: η; + = declared use-temperature extrapolation / model estimate -->
    <g style="fill: #516174" transform="translate(58.8296 52.0284) scale(0.08 -0.08)">
     <defs>
      <path id="STHeiti-2a" d="M 5318 4211
L 4966 3872
Q 4582 4243 4124 4441
Q 3667 4640 3180 4640
Q 2694 4640 2208 4377
Q 1722 4115 1450 3670
Q 1178 3226 1178 2707
Q 1178 1901 1782 1302
Q 2387 704 3296 704
Q 3987 704 4483 1091
Q 4979 1478 5075 2144
L 3610 2144
L 3610 2586
L 5594 2586
Q 5574 1491 4940 880
Q 4307 269 3283 269
Q 2106 269 1398 992
Q 691 1715 691 2691
Q 691 3667 1395 4380
Q 2099 5094 3244 5094
Q 4390 5094 5318 4211
z
" transform="scale(0.015625)"/>
      <path id="STHeiti-5c" d="M 122 3782
L 582 3782
L 1754 1165
L 2886 3782
L 3354 3782
L 1325 -858
L 864 -858
L 1517 640
L 122 3782
z
" transform="scale(0.015625)"/>
      <path id="STHeiti-1d" d="M 582 3482
Q 582 3642 697 3757
Q 813 3872 969 3872
Q 1126 3872 1238 3760
Q 1350 3648 1350 3485
Q 1350 3322 1241 3210
Q 1133 3098 969 3098
Q 806 3098 694 3210
Q 582 3322 582 3482
z
M 582 685
Q 582 845 697 957
Q 813 1069 969 1069
Q 1126 1069 1238 957
Q 1350 845 1350 681
Q 1350 518 1238 406
Q 1126 294 969 294
Q 813 294 697 409
Q 582 525 582 685
z
" transform="scale(0.015625)"/>
      <path id="STHeiti-45" d="M 518 384
L 518 5094
L 947 5094
L 947 3200
Q 1504 3872 2310 3872
Q 3040 3872 3549 3344
Q 4058 2816 4058 2073
Q 4058 1331 3539 800
Q 3021 269 2298 269
Q 1491 269 947 1011
L 947 384
L 518 384
z
M 922 2106
Q 922 1510 1312 1100
Q 1702 691 2265 691
Q 2829 691 3222 1107
Q 3616 1523 3616 2083
Q 3616 2643 3232 3059
Q 2848 3475 2272 3475
Q 1696 3475 1309 3084
Q 922 2694 922 2106
z
" transform="scale(0.015625)"/>
      <path id="STHeiti-10" d="M 205 2304
L 1920 2304
L 1920 1920
L 205 1920
L 205 2304
z
" transform="scale(0.015625)"/>
      <path id="STHeiti-5b" d="M 1530 1805
L 544 384
L 26 384
L 1267 2176
L 147 3782
L 672 3782
L 1530 2554
L 2381 3782
L 2906 3782
L 1792 2182
L 3053 384
L 2522 384
L 1530 1805
z
" transform="scale(0.015625)"/>
      <path id="STHeiti-12" d="M 2611 5094
L 704 -243
L 224 -243
L 2131 5094
L 2611 5094
z
" transform="scale(0.015625)"/>
     </defs>
     <use xlink:href="#STHeiti-2a"/>
     <use xlink:href="#STHeiti-55" transform="translate(87.203125 0)"/>
     <use xlink:href="#STHeiti-44" transform="translate(117.296875 0)"/>
     <use xlink:href="#STHeiti-5c" transform="translate(185.59375 0)"/>
     <use xlink:href="#STHeiti-1d" transform="translate(239.1875 0)"/>
     <use xlink:href="#STHeiti-3" transform="translate(266.890625 0)"/>
     <use xlink:href="#STHeiti-25" transform="translate(291.890625 0)"/>
     <use xlink:href="#STHeiti-14" transform="translate(349.296875 0)"/>
     <use xlink:href="#STHeiti-13" transform="translate(404.703125 0)"/>
     <use xlink:href="#STHeiti-1e" transform="translate(460.109375 0)"/>
     <use xlink:href="#STHeiti-3" transform="translate(487.8125 0)"/>
     <use xlink:href="#STHeiti-45" transform="translate(512.8125 0)"/>
     <use xlink:href="#STHeiti-4f" transform="translate(581.015625 0)"/>
     <use xlink:href="#STHeiti-58" transform="translate(601.015625 0)"/>
     <use xlink:href="#STHeiti-48" transform="translate(661.8125 0)"/>
     <use xlink:href="#STHeiti-1d" transform="translate(726.8125 0)"/>
     <use xlink:href="#STHeiti-3" transform="translate(754.515625 0)"/>
     <use xlink:href="#STHeiti-1b4" transform="translate(779.515625 0)"/>
     <use xlink:href="#STHeiti-1e" transform="translate(840.515625 0)"/>
     <use xlink:href="#STHeiti-3" transform="translate(868.21875 0)"/>
     <use xlink:href="#STHeiti-e" transform="translate(893.21875 0)"/>
     <use xlink:href="#STHeiti-3" transform="translate(953.8125 0)"/>
     <use xlink:href="#STHeiti-20" transform="translate(978.8125 0)"/>
     <use xlink:href="#STHeiti-3" transform="translate(1039.40625 0)"/>
     <use xlink:href="#STHeiti-47" transform="translate(1064.40625 0)"/>
     <use xlink:href="#STHeiti-48" transform="translate(1132.90625 0)"/>
     <use xlink:href="#STHeiti-46" transform="translate(1197.90625 0)"/>
     <use xlink:href="#STHeiti-4f" transform="translate(1262.609375 0)"/>
     <use xlink:href="#STHeiti-44" transform="translate(1282.609375 0)"/>
     <use xlink:href="#STHeiti-55" transform="translate(1350.90625 0)"/>
     <use xlink:href="#STHeiti-48" transform="translate(1381 0)"/>
     <use xlink:href="#STHeiti-47" transform="translate(1446 0)"/>
     <use xlink:href="#STHeiti-3" transform="translate(1514.5 0)"/>
     <use xlink:href="#STHeiti-58" transform="translate(1539.5 0)"/>
     <use xlink:href="#STHeiti-56" transform="translate(1600.296875 0)"/>
     <use xlink:href="#STHeiti-48" transform="translate(1639.09375 0)"/>
     <use xlink:href="#STHeiti-10" transform="translate(1704.09375 0)"/>
     <use xlink:href="#STHeiti-57" transform="translate(1737.296875 0)"/>
     <use xlink:href="#STHeiti-48" transform="translate(1771.203125 0)"/>
     <use xlink:href="#STHeiti-50" transform="translate(1836.203125 0)"/>
     <use xlink:href="#STHeiti-53" transform="translate(1930 0)"/>
     <use xlink:href="#STHeiti-48" transform="translate(1998.203125 0)"/>
     <use xlink:href="#STHeiti-55" transform="translate(2063.203125 0)"/>
     <use xlink:href="#STHeiti-44" transform="translate(2093.296875 0)"/>
     <use xlink:href="#STHeiti-57" transform="translate(2161.59375 0)"/>
     <use xlink:href="#STHeiti-58" transform="translate(2195.5 0)"/>
     <use xlink:href="#STHeiti-55" transform="translate(2256.296875 0)"/>
     <use xlink:href="#STHeiti-48" transform="translate(2286.390625 0)"/>
     <use xlink:href="#STHeiti-3" transform="translate(2351.390625 0)"/>
     <use xlink:href="#STHeiti-48" transform="translate(2376.390625 0)"/>
     <use xlink:href="#STHeiti-5b" transform="translate(2441.390625 0)"/>
     <use xlink:href="#STHeiti-57" transform="translate(2489.390625 0)"/>
     <use xlink:href="#STHeiti-55" transform="translate(2523.296875 0)"/>
     <use xlink:href="#STHeiti-44" transform="translate(2553.390625 0)"/>
     <use xlink:href="#STHeiti-53" transform="translate(2621.6875 0)"/>
     <use xlink:href="#STHeiti-52" transform="translate(2689.890625 0)"/>
     <use xlink:href="#STHeiti-4f" transform="translate(2755.390625 0)"/>
     <use xlink:href="#STHeiti-44" transform="translate(2775.390625 0)"/>
     <use xlink:href="#STHeiti-57" transform="translate(2843.6875 0)"/>
     <use xlink:href="#STHeiti-4c" transform="translate(2877.59375 0)"/>
     <use xlink:href="#STHeiti-52" transform="translate(2897.59375 0)"/>
     <use xlink:href="#STHeiti-51" transform="translate(2963.09375 0)"/>
     <use xlink:href="#STHeiti-3" transform="translate(3024.09375 0)"/>
     <use xlink:href="#STHeiti-12" transform="translate(3049.09375 0)"/>
     <use xlink:href="#STHeiti-3" transform="translate(3092.796875 0)"/>
     <use xlink:href="#STHeiti-50" transform="translate(3117.796875 0)"/>
     <use xlink:href="#STHeiti-52" transform="translate(3211.59375 0)"/>
     <use xlink:href="#STHeiti-47" transform="translate(3277.09375 0)"/>
     <use xlink:href="#STHeiti-48" transform="translate(3345.59375 0)"/>
     <use xlink:href="#STHeiti-4f" transform="translate(3410.59375 0)"/>
     <use xlink:href="#STHeiti-3" transform="translate(3430.59375 0)"/>
     <use xlink:href="#STHeiti-48" transform="translate(3455.59375 0)"/>
     <use xlink:href="#STHeiti-56" transform="translate(3520.59375 0)"/>
     <use xlink:href="#STHeiti-57" transform="translate(3559.390625 0)"/>
     <use xlink:href="#STHeiti-4c" transform="translate(3593.296875 0)"/>
     <use xlink:href="#STHeiti-50" transform="translate(3613.296875 0)"/>
     <use xlink:href="#STHeiti-44" transform="translate(3707.09375 0)"/>
     <use xlink:href="#STHeiti-57" transform="translate(3775.390625 0)"/>
     <use xlink:href="#STHeiti-48" transform="translate(3809.296875 0)"/>
    </g>
    <!-- Arrhenius–Weibull model estimates, not direct observations. -->
    <g style="fill: #516174" transform="translate(58.8296 61.1804) scale(0.08 -0.08)">
     <defs>
      <path id="STHeiti-24" d="M 2438 5165
L 4582 384
L 4090 384
L 3366 1952
L 1382 1952
L 666 384
L 154 384
L 2323 5165
L 2438 5165
z
M 2381 4147
L 1594 2419
L 3162 2419
L 2381 4147
z
" transform="scale(0.015625)"/>
      <path id="STHeiti-4b" d="M 486 5094
L 928 5094
L 928 3174
Q 1453 3872 2202 3872
Q 2586 3872 2893 3664
Q 3200 3456 3328 3120
Q 3456 2784 3456 2131
L 3456 384
L 3014 384
L 3014 2003
Q 3014 2528 2982 2726
Q 2950 2925 2841 3104
Q 2733 3283 2550 3376
Q 2368 3469 2109 3469
Q 1850 3469 1613 3347
Q 1376 3226 1209 3008
Q 1043 2790 985 2560
Q 928 2330 928 1632
L 928 384
L 486 384
L 486 5094
z
" transform="scale(0.015625)"/>
      <path id="STHeiti-1e36" d="M 4819 2099
L 1754 2099
L 1754 2515
L 4819 2515
L 4819 2099
z
" transform="scale(0.015625)"/>
      <path id="STHeiti-3a" d="M 301 4979
L 774 4979
L 1709 1555
L 3027 4979
L 3117 4979
L 4422 1555
L 5376 4979
L 5843 4979
L 4525 269
L 4435 269
L 3072 3859
L 1683 269
L 1600 269
L 301 4979
z
" transform="scale(0.015625)"/>
      <path id="STHeiti-59" d="M 166 3782
L 634 3782
L 1766 1197
L 2899 3782
L 3366 3782
L 1811 269
L 1734 269
L 166 3782
z
" transform="scale(0.015625)"/>
     </defs>
     <use xlink:href="#STHeiti-24"/>
     <use xlink:href="#STHeiti-55" transform="translate(74 0)"/>
     <use xlink:href="#STHeiti-55" transform="translate(104.09375 0)"/>
     <use xlink:href="#STHeiti-4b" transform="translate(134.1875 0)"/>
     <use xlink:href="#STHeiti-48" transform="translate(195.1875 0)"/>
     <use xlink:href="#STHeiti-51" transform="translate(260.1875 0)"/>
     <use xlink:href="#STHeiti-4c" transform="translate(321.1875 0)"/>
     <use xlink:href="#STHeiti-58" transform="translate(341.1875 0)"/>
     <use xlink:href="#STHeiti-56" transform="translate(401.984375 0)"/>
     <use xlink:href="#STHeiti-1e36" transform="translate(440.78125 0)"/>
     <use xlink:href="#STHeiti-3a" transform="translate(540.78125 0)"/>
     <use xlink:href="#STHeiti-48" transform="translate(636.78125 0)"/>
     <use xlink:href="#STHeiti-4c" transform="translate(701.78125 0)"/>
     <use xlink:href="#STHeiti-45" transform="translate(721.78125 0)"/>
     <use xlink:href="#STHeiti-58" transform="translate(789.984375 0)"/>
     <use xlink:href="#STHeiti-4f" transform="translate(850.78125 0)"/>
     <use xlink:href="#STHeiti-4f" transform="translate(870.78125 0)"/>
     <use xlink:href="#STHeiti-3" transform="translate(890.78125 0)"/>
     <use xlink:href="#STHeiti-50" transform="translate(915.78125 0)"/>
     <use xlink:href="#STHeiti-52" transform="translate(1009.578125 0)"/>
     <use xlink:href="#STHeiti-47" transform="translate(1075.078125 0)"/>
     <use xlink:href="#STHeiti-48" transform="translate(1143.578125 0)"/>
     <use xlink:href="#STHeiti-4f" transform="translate(1208.578125 0)"/>
     <use xlink:href="#STHeiti-3" transform="translate(1228.578125 0)"/>
     <use xlink:href="#STHeiti-48" transform="translate(1253.578125 0)"/>
     <use xlink:href="#STHeiti-56" transform="translate(1318.578125 0)"/>
     <use xlink:href="#STHeiti-57" transform="translate(1357.375 0)"/>
     <use xlink:href="#STHeiti-4c" transform="translate(1391.28125 0)"/>
     <use xlink:href="#STHeiti-50" transform="translate(1411.28125 0)"/>
     <use xlink:href="#STHeiti-44" transform="translate(1505.078125 0)"/>
     <use xlink:href="#STHeiti-57" transform="translate(1573.375 0)"/>
     <use xlink:href="#STHeiti-48" transform="translate(1607.28125 0)"/>
     <use xlink:href="#STHeiti-56" transform="translate(1672.28125 0)"/>
     <use xlink:href="#STHeiti-f" transform="translate(1711.078125 0)"/>
     <use xlink:href="#STHeiti-3" transform="translate(1738.78125 0)"/>
     <use xlink:href="#STHeiti-51" transform="translate(1763.78125 0)"/>
     <use xlink:href="#STHeiti-52" transform="translate(1824.78125 0)"/>
     <use xlink:href="#STHeiti-57" transform="translate(1890.28125 0)"/>
     <use xlink:href="#STHeiti-3" transform="translate(1924.1875 0)"/>
     <use xlink:href="#STHeiti-47" transform="translate(1949.1875 0)"/>
     <use xlink:href="#STHeiti-4c" transform="translate(2017.6875 0)"/>
     <use xlink:href="#STHeiti-55" transform="translate(2037.6875 0)"/>
     <use xlink:href="#STHeiti-48" transform="translate(2067.78125 0)"/>
     <use xlink:href="#STHeiti-46" transform="translate(2132.78125 0)"/>
     <use xlink:href="#STHeiti-57" transform="translate(2197.484375 0)"/>
     <use xlink:href="#STHeiti-3" transform="translate(2231.390625 0)"/>
     <use xlink:href="#STHeiti-52" transform="translate(2256.390625 0)"/>
     <use xlink:href="#STHeiti-45" transform="translate(2321.890625 0)"/>
     <use xlink:href="#STHeiti-56" transform="translate(2390.09375 0)"/>
     <use xlink:href="#STHeiti-48" transform="translate(2428.890625 0)"/>
     <use xlink:href="#STHeiti-55" transform="translate(2493.890625 0)"/>
     <use xlink:href="#STHeiti-59" transform="translate(2523.984375 0)"/>
     <use xlink:href="#STHeiti-44" transform="translate(2579.390625 0)"/>
     <use xlink:href="#STHeiti-57" transform="translate(2647.6875 0)"/>
     <use xlink:href="#STHeiti-4c" transform="translate(2681.59375 0)"/>
     <use xlink:href="#STHeiti-52" transform="translate(2701.59375 0)"/>
     <use xlink:href="#STHeiti-51" transform="translate(2767.09375 0)"/>
     <use xlink:href="#STHeiti-56" transform="translate(2828.09375 0)"/>
     <use xlink:href="#STHeiti-11" transform="translate(2866.890625 0)"/>
    </g>
   </g>
   <g id="text_20">
    <!-- Arrhenius–Weibull use-temperature lifetime estimates -->
    <g transform="translate(180.003125 21.12) scale(0.12 -0.12)">
     <use xlink:href="#STHeiti-24"/>
     <use xlink:href="#STHeiti-55" transform="translate(74 0)"/>
     <use xlink:href="#STHeiti-55" transform="translate(104.09375 0)"/>
     <use xlink:href="#STHeiti-4b" transform="translate(134.1875 0)"/>
     <use xlink:href="#STHeiti-48" transform="translate(195.1875 0)"/>
     <use xlink:href="#STHeiti-51" transform="translate(260.1875 0)"/>
     <use xlink:href="#STHeiti-4c" transform="translate(321.1875 0)"/>
     <use xlink:href="#STHeiti-58" transform="translate(341.1875 0)"/>
     <use xlink:href="#STHeiti-56" transform="translate(401.984375 0)"/>
     <use xlink:href="#STHeiti-1e36" transform="translate(440.78125 0)"/>
     <use xlink:href="#STHeiti-3a" transform="translate(540.78125 0)"/>
     <use xlink:href="#STHeiti-48" transform="translate(636.78125 0)"/>
     <use xlink:href="#STHeiti-4c" transform="translate(701.78125 0)"/>
     <use xlink:href="#STHeiti-45" transform="translate(721.78125 0)"/>
     <use xlink:href="#STHeiti-58" transform="translate(789.984375 0)"/>
     <use xlink:href="#STHeiti-4f" transform="translate(850.78125 0)"/>
     <use xlink:href="#STHeiti-4f" transform="translate(870.78125 0)"/>
     <use xlink:href="#STHeiti-3" transform="translate(890.78125 0)"/>
     <use xlink:href="#STHeiti-58" transform="translate(915.78125 0)"/>
     <use xlink:href="#STHeiti-56" transform="translate(976.578125 0)"/>
     <use xlink:href="#STHeiti-48" transform="translate(1015.375 0)"/>
     <use xlink:href="#STHeiti-10" transform="translate(1080.375 0)"/>
     <use xlink:href="#STHeiti-57" transform="translate(1113.578125 0)"/>
     <use xlink:href="#STHeiti-48" transform="translate(1147.484375 0)"/>
     <use xlink:href="#STHeiti-50" transform="translate(1212.484375 0)"/>
     <use xlink:href="#STHeiti-53" transform="translate(1306.28125 0)"/>
     <use xlink:href="#STHeiti-48" transform="translate(1374.484375 0)"/>
     <use xlink:href="#STHeiti-55" transform="translate(1439.484375 0)"/>
     <use xlink:href="#STHeiti-44" transform="translate(1469.578125 0)"/>
     <use xlink:href="#STHeiti-57" transform="translate(1537.875 0)"/>
     <use xlink:href="#STHeiti-58" transform="translate(1571.78125 0)"/>
     <use xlink:href="#STHeiti-55" transform="translate(1632.578125 0)"/>
     <use xlink:href="#STHeiti-48" transform="translate(1662.671875 0)"/>
     <use xlink:href="#STHeiti-3" transform="translate(1727.671875 0)"/>
     <use xlink:href="#STHeiti-4f" transform="translate(1752.671875 0)"/>
     <use xlink:href="#STHeiti-4c" transform="translate(1772.671875 0)"/>
     <use xlink:href="#STHeiti-49" transform="translate(1792.671875 0)"/>
     <use xlink:href="#STHeiti-48" transform="translate(1824.078125 0)"/>
     <use xlink:href="#STHeiti-57" transform="translate(1889.078125 0)"/>
     <use xlink:href="#STHeiti-4c" transform="translate(1922.984375 0)"/>
     <use xlink:href="#STHeiti-50" transform="translate(1942.984375 0)"/>
     <use xlink:href="#STHeiti-48" transform="translate(2036.78125 0)"/>
     <use xlink:href="#STHeiti-3" transform="translate(2101.78125 0)"/>
     <use xlink:href="#STHeiti-48" transform="translate(2126.78125 0)"/>
     <use xlink:href="#STHeiti-56" transform="translate(2191.78125 0)"/>
     <use xlink:href="#STHeiti-57" transform="translate(2230.578125 0)"/>
     <use xlink:href="#STHeiti-4c" transform="translate(2264.484375 0)"/>
     <use xlink:href="#STHeiti-50" transform="translate(2284.484375 0)"/>
     <use xlink:href="#STHeiti-44" transform="translate(2378.28125 0)"/>
     <use xlink:href="#STHeiti-57" transform="translate(2446.578125 0)"/>
     <use xlink:href="#STHeiti-48" transform="translate(2480.484375 0)"/>
     <use xlink:href="#STHeiti-56" transform="translate(2545.484375 0)"/>
    </g>
   </g>
  </g>
 </g>
 <defs>
  <clipPath id="pba9628708d">
   <rect x="47.32" y="27.12" width="575.48" height="276.68"/>
  </clipPath>
 </defs>
</svg>
